<?xml version="1.0" encoding="utf-8"?>
<!-- Generator: Adobe Illustrator 21.0.0, SVG Export Plug-In . SVG Version: 6.00 Build 0)  -->
<svg version="1.1" id="Layer_1" xmlns="http://www.w3.org/2000/svg" xmlns:xlink="http://www.w3.org/1999/xlink" x="0px" y="0px"
	 viewBox="0 0 80 31.3" style="enable-background:new 0 0 80 31.3;" xml:space="preserve">
<style type="text/css">
	.st0{fill:#414A51;}
</style>
<g>
	<g>
		<g>
			<g>
				<path class="st0" d="M68.2,10.4c-0.3-0.3-0.7-0.6-1.1-0.8c-0.4-0.2-0.9-0.3-1.4-0.3c-0.5,0-1,0.1-1.4,0.3
					c-0.4,0.2-0.8,0.4-1.1,0.7c-0.3,0.3-0.6,0.6-0.8,1.1c-0.2,0.4-0.3,0.9-0.3,1.3v5c0,0.5,0.1,0.9,0.2,1.4c0.2,0.4,0.4,0.8,0.8,1.1
					c0.3,0.3,0.7,0.6,1.1,0.8c0.4,0.2,0.9,0.3,1.5,0.3c0.5,0,0.9-0.1,1.3-0.3c0.4-0.2,0.8-0.4,1.1-0.7c0.3-0.3,0.6-0.6,0.8-1.1
					c0.2-0.4,0.3-0.9,0.3-1.3l0-5c0-0.5-0.1-0.9-0.3-1.4C68.8,11.1,68.6,10.7,68.2,10.4z"/>
				<path class="st0" d="M77.5,0h-75C1.1,0,0,1.1,0,2.5v26.3c0,1.4,1.1,2.5,2.5,2.5h75c1.4,0,2.5-1.1,2.5-2.5V2.5
					C80,1.1,78.9,0,77.5,0z M3.4,29.3c-0.7,0-1.4-0.6-1.4-1.4c0-0.8,0.6-1.4,1.4-1.4c0.8,0,1.4,0.6,1.4,1.4
					C4.7,28.6,4.1,29.3,3.4,29.3z M3.4,4.7C2.6,4.7,2,4.1,2,3.4C2,2.6,2.6,2,3.4,2c0.8,0,1.4,0.6,1.4,1.4C4.7,4.1,4.1,4.7,3.4,4.7z
					 M21.4,21.7c0.4,0.4,0.6,0.9,0.6,1.5c0,0.6-0.2,1.1-0.6,1.5c-0.4,0.4-0.9,0.6-1.5,0.6c-0.6,0-1.1-0.2-1.5-0.6l-7.3-6.4v4.9
					c0,0.6-0.2,1.1-0.6,1.5c-0.4,0.4-0.9,0.6-1.5,0.6c-0.6,0-1.1-0.2-1.5-0.6c-0.4-0.4-0.6-0.9-0.6-1.5V7.4c0-0.6,0.2-1.1,0.6-1.5
					c0.4-0.4,0.9-0.6,1.5-0.6c0.6,0,1.1,0.2,1.5,0.6c0.4,0.4,0.6,0.9,0.6,1.5v4.9l7.3-6.4c0.4-0.4,0.9-0.6,1.5-0.6
					c0.6,0,1.1,0.2,1.5,0.6C21.8,6.4,22,6.8,22,7.4c0,0.6-0.2,1.1-0.6,1.5L14,15.3L21.4,21.7z M39.2,23.2c0,0.5-0.2,1-0.6,1.4
					c-0.4,0.4-0.9,0.6-1.4,0.6c-0.6,0-1-0.2-1.5-0.5c-0.4-0.4-0.6-0.8-0.6-1.4v-3.7h-7v3.6c0,0.5-0.2,1-0.6,1.4
					c-0.4,0.4-0.9,0.6-1.4,0.6c-0.5,0-1-0.2-1.4-0.6c-0.4-0.4-0.6-0.8-0.6-1.4V12.9c0-1,0.2-2,0.6-2.9C25,9,25.5,8.2,26.2,7.5
					c0.7-0.7,1.5-1.2,2.4-1.6c0.9-0.4,1.9-0.6,3-0.6c1,0,2,0.2,2.9,0.5c0.9,0.4,1.7,0.9,2.4,1.5c0.7,0.7,1.2,1.4,1.7,2.3
					c0.4,0.9,0.6,1.9,0.6,2.9V23.2z M56.3,23.2c0,0.5-0.2,1-0.6,1.4c-0.4,0.4-0.9,0.6-1.4,0.6c-0.6,0-1-0.2-1.5-0.5
					c-0.4-0.4-0.6-0.8-0.6-1.4V12.9c0-0.5-0.1-0.9-0.3-1.4c-0.2-0.4-0.4-0.8-0.8-1.1c-0.3-0.3-0.7-0.6-1.1-0.8s-0.9-0.3-1.4-0.3
					c-0.5,0-0.9,0.1-1.3,0.3c-0.4,0.2-0.8,0.4-1.1,0.7c-0.3,0.3-0.6,0.6-0.8,1.1c-0.2,0.4-0.3,0.9-0.3,1.3v10.5c0,0.5-0.2,1-0.6,1.4
					c-0.4,0.4-0.9,0.6-1.4,0.6c-0.5,0-1-0.2-1.4-0.6c-0.4-0.4-0.6-0.8-0.6-1.4V12.9c0-1,0.2-2,0.6-2.9c0.4-0.9,0.9-1.7,1.6-2.4
					C44,6.9,44.8,6.4,45.7,6c0.9-0.4,1.9-0.6,3-0.6c1,0,2,0.2,2.9,0.5c0.9,0.4,1.7,0.9,2.4,1.5c0.7,0.7,1.2,1.4,1.7,2.3
					c0.4,0.9,0.6,1.9,0.6,2.9V23.2z M73.3,17.7c0,1-0.2,2-0.6,2.9c-0.4,0.9-0.9,1.7-1.6,2.4c-0.7,0.7-1.5,1.2-2.4,1.6
					c-0.9,0.4-1.9,0.6-3,0.6c-1,0-2-0.2-2.9-0.5c-0.9-0.4-1.7-0.9-2.4-1.5c-0.7-0.7-1.2-1.4-1.7-2.3C58.3,20,58.1,19,58.1,18v-5.1
					c0-1,0.2-2,0.6-2.9c0.4-0.9,0.9-1.7,1.6-2.4c0.7-0.7,1.5-1.2,2.4-1.6c0.9-0.4,1.9-0.6,3.1-0.6c1,0,2,0.2,2.9,0.5
					c0.9,0.4,1.7,0.9,2.4,1.5c0.7,0.7,1.2,1.4,1.7,2.3c0.4,0.9,0.6,1.9,0.6,2.9V17.7z M76.6,29.3c-0.7,0-1.4-0.6-1.4-1.4
					c0-0.8,0.6-1.4,1.4-1.4c0.8,0,1.4,0.6,1.4,1.4C78,28.6,77.4,29.3,76.6,29.3z M76.6,4.7c-0.7,0-1.4-0.6-1.4-1.4
					c0-0.8,0.6-1.4,1.4-1.4C77.4,2,78,2.6,78,3.4C78,4.1,77.4,4.7,76.6,4.7z"/>
				<path class="st0" d="M34.1,10.4c-0.3-0.3-0.7-0.6-1.1-0.8c-0.4-0.2-0.9-0.3-1.4-0.3c-0.5,0-0.9,0.1-1.3,0.3
					c-0.4,0.2-0.8,0.4-1.1,0.7c-0.3,0.3-0.6,0.6-0.8,1.1c-0.2,0.4-0.3,0.9-0.3,1.3v2.8h7v-2.7c0-0.5-0.1-0.9-0.3-1.4
					C34.7,11.1,34.4,10.7,34.1,10.4z"/>
			</g>
		</g>
	</g>
</g>
</svg>
